<?xml version="1.0" encoding="utf-8"?>
<!-- Generator: Adobe Illustrator 22.1.0, SVG Export Plug-In . SVG Version: 6.00 Build 0)  -->
<svg version="1.1" xmlns="http://www.w3.org/2000/svg" xmlns:xlink="http://www.w3.org/1999/xlink" x="0px" y="0px"
	 viewBox="0 0 838.1 500" enable-background="new 0 0 838.1 500" xml:space="preserve">
<g id="BACKGROUND">
</g>
<g id="fokus">
	<g>
		<linearGradient id="SVGID_1_" gradientUnits="userSpaceOnUse" x1="418.2543" y1="-0.3711" x2="420.4106" y2="639.8059">
			<stop  offset="0" style="stop-color:#E0FFFC"/>
			<stop  offset="0" style="stop-color:#7098E9"/>
			<stop  offset="2.887790e-02" style="stop-color:#3A93EA"/>
			<stop  offset="0.1497" style="stop-color:#4E74EF"/>
			<stop  offset="0.3122" style="stop-color:#6552F5"/>
			<stop  offset="0.478" style="stop-color:#7637F9"/>
			<stop  offset="0.6462" style="stop-color:#8324FC"/>
			<stop  offset="0.8182" style="stop-color:#8B19FE"/>
			<stop  offset="1" style="stop-color:#8D15FF"/>
		</linearGradient>
		<rect y="28.7" fill="url(#SVGID_1_)" width="838.1" height="420"/>
		<path fill="#FFFFFF" d="M533.9,406.3c0,0,11.1-70.6,89.5-110.4c40-20.3,62.8-13.9,84.6-57.2c16.6-32.8-12-64,17.7-97.4
			c26.2-29.5,53.2-2.7,86.8-30.6s22.9-86.8,22.9-86.8H1.3c0,0-6.4,58.9,25.5,86.8s70.5,5.5,91,38.5s-23.3,58-3.1,96.5
			s41.4,24,79,40.2c64.6,27.7,72.8,82.3,81.2,120.5"/>
		<linearGradient id="SVGID_2_" gradientUnits="userSpaceOnUse" x1="418.8414" y1="406.2765" x2="418.8414" y2="23.902">
			<stop  offset="0" style="stop-color:#3700FF"/>
			<stop  offset="6.420479e-02" style="stop-color:#3604FF"/>
			<stop  offset="0.125" style="stop-color:#330FFF"/>
			<stop  offset="0.1844" style="stop-color:#2D22FF"/>
			<stop  offset="0.2429" style="stop-color:#263DFF"/>
			<stop  offset="0.3003" style="stop-color:#1C5FFF"/>
			<stop  offset="0.3391" style="stop-color:#147BFF"/>
			<stop  offset="0.4118" style="stop-color:#2685FF"/>
			<stop  offset="0.5578" style="stop-color:#559FFF"/>
			<stop  offset="0.7638" style="stop-color:#A0CAFF"/>
			<stop  offset="1" style="stop-color:#FFFFFF"/>
		</linearGradient>
		<path opacity="0.64" fill="url(#SVGID_2_)" d="M533.9,406.3c0,0,11.1-70.6,89.5-110.4c40-20.3,62.8-13.9,84.6-57.2
			c16.6-32.8-12-64,17.7-97.4c26.2-29.5,53.2-2.7,86.8-30.6s22.9-86.8,22.9-86.8H1.3c0,0-6.4,58.9,25.5,86.8s70.5,5.5,91,38.5
			s-23.3,58-3.1,96.5s41.4,24,79,40.2c64.6,27.7,72.8,82.3,81.2,120.5"/>
		<path fill="#FFFFFF" d="M521.4,406.3c0,0,9.9-70.6,79.7-110.4c35.6-20.3,56-13.9,75.4-57.2c14.8-32.8-10.7-64,15.7-97.4
			c23.3-29.5,47.4-2.7,77.3-30.6C799.6,82.8,790,23.9,790,23.9H46.7c0,0-5.7,58.9,22.7,86.8s62.8,5.5,81.1,38.5s-20.8,58-2.7,96.5
			s36.9,24,70.4,40.2c57.5,27.7,64.9,82.3,72.3,120.5"/>
		<rect y="406.3" fill="#9A46FA" width="838.1" height="93.8"/>
		<path fill="#E4CCFF" d="M281.3,297.1l-30.8-21.6c0.4-24,9.5-41.7,24.2-50.3l24.7,20.6C287,251.9,284,271.5,281.3,297.1z"/>
		
			<path opacity="0.56" fill="none" stroke="#00C4B5" stroke-width="1.3089" stroke-linecap="round" stroke-linejoin="round" stroke-miterlimit="10" d="
			M287.8,381.1c0,0,47.4-70.7-20.9-106.6C182,229.8,106,259.1,70.3,217.5C34,175.4,113.3,66.8,21.1,40"/>
		
			<path opacity="0.56" fill="none" stroke="#FFFFFF" stroke-width="1.3089" stroke-linecap="round" stroke-linejoin="round" stroke-miterlimit="10" d="
			M256.3,398.9c0,0-13.3-83.4-94-96.3c-41.9-6.7-90.9-23-86.9-63.9"/>
		
			<path opacity="0.52" fill="none" stroke="#FFEAB5" stroke-width="1.3089" stroke-linecap="round" stroke-linejoin="round" stroke-miterlimit="10" d="
			M815.3,122.6c0,0,4.6,35.4-19,47.5c-23.6,12.1-56.9-6.3-61.5,47.4"/>
		<path fill="#E4CCFF" d="M580.3,210.5l21.5,28.5c-10.2,19.1-29,33.6-44.4,34.5l-13.1-27.4C557.1,243.3,574.6,226.5,580.3,210.5z"/>
		
			<path opacity="0.56" fill="none" stroke="#00FFEB" stroke-width="1.3089" stroke-linecap="round" stroke-linejoin="round" stroke-miterlimit="10" d="
			M554.4,400.6c0,0,20.1-53.2,72.6-83.4c55.7-32,156.1-20.1,131-118.4"/>
		
			<path opacity="0.56" fill="none" stroke="#FF70DD" stroke-width="1.3089" stroke-linecap="round" stroke-linejoin="round" stroke-miterlimit="10" d="
			M797.6,28.8c0,0,37.8,75.7-59.8,143.4c-62.8,43.5-219,16.2-229.2,200.5"/>
		
			<path opacity="0.56" fill="none" stroke="#FF7ADF" stroke-width="1.3089" stroke-linecap="round" stroke-linejoin="round" stroke-miterlimit="10" d="
			M84.5,212c-0.7-3.2,15.7-42.2-18.6-47.5c-34-5.2-55-7.4-61.3-32.9"/>
		<linearGradient id="SVGID_3_" gradientUnits="userSpaceOnUse" x1="688.2917" y1="237.3235" x2="840.2917" y2="464.6568">
			<stop  offset="0" style="stop-color:#5B0DC2"/>
			<stop  offset="0.2526" style="stop-color:#5E0DC3"/>
			<stop  offset="0.4169" style="stop-color:#660EC7"/>
			<stop  offset="0.5561" style="stop-color:#750ECD"/>
			<stop  offset="0.6813" style="stop-color:#8A10D6"/>
			<stop  offset="0.7971" style="stop-color:#A611E2"/>
			<stop  offset="0.9045" style="stop-color:#C713F0"/>
			<stop  offset="1" style="stop-color:#EB15FF"/>
		</linearGradient>
		<path opacity="0.29" fill="url(#SVGID_3_)" d="M625.1,405.3c0,0-6.7-28.4,25.2-46.8c49.6-28.7,121.3-11.1,129.3-96
			c5.8-61.9,58.6-63.6,58.6-63.6v207.4L625.1,405.3z"/>
		
			<linearGradient id="SVGID_4_" gradientUnits="userSpaceOnUse" x1="73.0411" y1="237.3235" x2="225.0411" y2="464.6568" gradientTransform="matrix(-1 0 0 1 222.8685 0)">
			<stop  offset="0" style="stop-color:#5B0DC2"/>
			<stop  offset="0.2526" style="stop-color:#5E0DC3"/>
			<stop  offset="0.4169" style="stop-color:#660EC7"/>
			<stop  offset="0.5561" style="stop-color:#750ECD"/>
			<stop  offset="0.6813" style="stop-color:#8A10D6"/>
			<stop  offset="0.7971" style="stop-color:#A611E2"/>
			<stop  offset="0.9045" style="stop-color:#C713F0"/>
			<stop  offset="1" style="stop-color:#EB15FF"/>
		</linearGradient>
		<path opacity="0.29" fill="url(#SVGID_4_)" d="M213.1,405.3c0,0,6.7-28.4-25.2-46.8c-49.6-28.7-121.3-11.1-129.3-96
			C52.7,200.5,0,198.9,0,198.9v207.4L213.1,405.3z"/>
		<g opacity="0.55">
			<circle fill="#FFBADA" stroke="#FF5CA8" stroke-width="1.0931" stroke-miterlimit="10" cx="532.1" cy="63.1" r="3.7"/>
			
				<circle opacity="0.52" fill="#FFBADA" stroke="#FF5CA8" stroke-width="1.0931" stroke-miterlimit="10" cx="518.8" cy="230.2" r="3.7"/>
			<g opacity="0.52">
				<circle fill="#FFC9E3" stroke="#FF5CA8" stroke-width="1.0931" stroke-miterlimit="10" cx="158.6" cy="59.4" r="3.7"/>
				<g>
					<circle fill="#FFC9E3" stroke="#FF5CA8" stroke-width="1.0931" stroke-miterlimit="10" cx="262.6" cy="194.8" r="2.3"/>
					<circle fill="#FFC9E3" stroke="#FF5CA8" stroke-width="1.0931" stroke-miterlimit="10" cx="639.2" cy="50.3" r="2.3"/>
					<circle fill="#FFC9E3" stroke="#FF5CA8" stroke-width="1.0931" stroke-miterlimit="10" cx="574.5" cy="178.6" r="2.3"/>
					<circle fill="#FFC9E3" stroke="#FF5CA8" stroke-width="1.0931" stroke-miterlimit="10" cx="209.4" cy="109.7" r="2.3"/>
					<circle fill="#FFC9E3" stroke="#FF5CA8" stroke-width="1.0931" stroke-miterlimit="10" cx="339.6" cy="65.4" r="2.3"/>
					<circle fill="#FFC9E3" stroke="#FF5CA8" stroke-width="1.0931" stroke-miterlimit="10" cx="303.9" cy="278" r="6"/>
					<circle fill="#FFC9E3" stroke="#FF5CA8" stroke-width="1.0931" stroke-miterlimit="10" cx="414.6" cy="241.3" r="6"/>
					<circle fill="#FFC9E3" stroke="#FF5CA8" stroke-width="1.0931" stroke-miterlimit="10" cx="596" cy="260.1" r="2.3"/>
					<circle fill="#FFC9E3" stroke="#FF5CA8" stroke-width="1.0931" stroke-miterlimit="10" cx="214" cy="244.8" r="2.3"/>
					<circle fill="#FFC9E3" stroke="#FF5CA8" stroke-width="1.0931" stroke-miterlimit="10" cx="578.8" cy="131.6" r="5.9"/>
					<circle fill="#FFC9E3" stroke="#FF5CA8" stroke-width="1.0931" stroke-miterlimit="10" cx="283.6" cy="131.6" r="5.9"/>
					<circle fill="#FFC9E3" stroke="#FF5CA8" stroke-width="0.4611" stroke-miterlimit="10" cx="279.2" cy="40" r="2.5"/>
					<circle fill="#FFC9E3" stroke="#FF5CA8" stroke-width="1.0931" stroke-miterlimit="10" cx="496.3" cy="317.2" r="5.9"/>
				</g>
			</g>
		</g>
		<g>
			<g>
				<defs>
					<path id="XMLID_23_" d="M681.2,383.6h-5v-2.1c0-2.2-1.8-4.1-4.1-4.1h-22.8c-2.2,0-4.1,1.8-4.1,4.1V404c0,4.3,3.5,7.8,7.8,7.8
						h15.3c3.8,0,7-2.8,7.7-6.4l4,0c4.2,0,7.5-3.4,7.5-7.5V390C687.6,386.4,684.8,383.6,681.2,383.6z M682.2,397.8
						c0,1.2-1,2.1-2.1,2.1h-3.9v-11h5c0.5,0,1,0.4,1,1V397.8z"/>
				</defs>
				<use xlink:href="#XMLID_23_"  overflow="visible" fill="#AE66FF"/>
				<clipPath id="XMLID_2_">
					<use xlink:href="#XMLID_23_"  overflow="visible"/>
				</clipPath>
				<rect x="667.2" y="377.4" clip-path="url(#XMLID_2_)" fill="#AE66FF" width="30.9" height="34.3"/>
			</g>
			<g>
				<path fill="#C28AFF" d="M658,386.9l-2.2,5c-0.2,0.4-0.1,0.8,0.2,1.1c0.8,0.9,1,2.3,0.4,3.4l-2.6,4.9c0.4,0.2,0.9,0.3,1.4,0.3
					c2.6,0,4.8-3.6,4.8-8.1C660,390.7,659.2,388.3,658,386.9z"/>
				<path fill="#C28AFF" d="M655,395.4c0.2-0.4,0.1-0.9-0.2-1.2c-0.8-0.8-1-2.1-0.5-3.2l2.4-5.3c-0.5-0.3-1-0.4-1.5-0.4
					c-2.6,0-4.8,3.6-4.8,8.1c0,2.8,0.8,5.2,2.1,6.7L655,395.4z"/>
			</g>
		</g>
		<path fill="#E4CCFF" d="M239.2,121.5l-45,17.6c-22.4-17.1-35.1-35.3-32.7-55.3l43.8-12.4C202.2,87.4,219.9,111.1,239.2,121.5z"/>
		<path fill="#E4CCFF" d="M612.4,97.4l17.2-32.8c25.4-2.2,45.8,1.9,58.5,15.6L670.9,113C661.4,101.4,640.1,97.3,612.4,97.4z"/>
		
			<line fill="none" stroke="#FF5F8F" stroke-width="1.2043" stroke-linecap="round" stroke-linejoin="round" stroke-miterlimit="10" x1="402.9" y1="315.4" x2="407.5" y2="317.2"/>
		
			<line fill="none" stroke="#FF5F8F" stroke-width="1.2043" stroke-linecap="round" stroke-linejoin="round" stroke-miterlimit="10" x1="416.1" y1="317.6" x2="420.1" y2="314.6"/>
		<circle fill="#FFFFFF" cx="418.1" cy="319.5" r="0.4"/>
		<circle fill="#FFFFFF" cx="406.4" cy="319.5" r="0.4"/>
		<polyline opacity="0.5" fill="none" stroke="#FFFFFF" stroke-width="1.3089" stroke-miterlimit="10" points="371.4,359.4 
			383.1,344.7 392.6,362 409,349 416.1,369 430.3,360.9 434.3,376.5 444.1,375.9 		"/>
		
			<line fill="none" stroke="#FF5F8F" stroke-width="1.2043" stroke-linecap="round" stroke-linejoin="round" stroke-miterlimit="10" x1="344.6" y1="309.7" x2="339.6" y2="321.2"/>
		<path fill="#AE66FF" d="M344.1,420.5l-7.6,6c-0.2,0.2-0.5,0.3-0.7,0.3h-17c-1.1,0-1.6-1.4-0.7-2.1l7.6-6c0.2-0.2,0.5-0.3,0.7-0.3
			h17C344.5,418.4,345,419.8,344.1,420.5z"/>
		<path fill="#AE66FF" d="M330.7,431.7l-12.6,10c-0.3,0.2-0.6,0.3-0.9,0.3h-16.3c-1.3,0-1.9-1.7-0.9-2.5l12.6-10
			c0.3-0.2,0.6-0.3,0.9-0.3h16.3C331.2,429.2,331.7,430.8,330.7,431.7z"/>
		<g>
			<linearGradient id="SVGID_5_" gradientUnits="userSpaceOnUse" x1="387.3844" y1="411.4463" x2="421.425" y2="298.5595">
				<stop  offset="0" style="stop-color:#E0FFFC"/>
				<stop  offset="0" style="stop-color:#7098E9"/>
				<stop  offset="2.887790e-02" style="stop-color:#3A93EA"/>
				<stop  offset="0.2633" style="stop-color:#536DF0"/>
				<stop  offset="0.5982" style="stop-color:#723EF8"/>
				<stop  offset="0.8546" style="stop-color:#8620FD"/>
				<stop  offset="1" style="stop-color:#8D15FF"/>
			</linearGradient>
			<path fill="url(#SVGID_5_)" d="M452.1,332.8c-18.3-9.2-41.5-20.2-67.5-27.7l-21.4,17.9l18.6,83.2h57.8l2.7-24.7l1.7-5.7
				L452.1,332.8z"/>
			<path fill="#FEC6C1" d="M459.1,339l28.5,43.4c6.7,10.2-0.6,23.8-12.9,23.8h-66v-12.9l43.7-9.1l-8.3-8.3L459.1,339z"/>
			<path fill="#FEC6C1" d="M366.8,338.7l-3.5-15.6l21.4-17.9L347.2,292c-4-1.4-8.4-0.6-11.6,2.1l-47.7,39.4l14.3,6l37.4-17.5
				L366.8,338.7z"/>
			<g>
				<path fill="#FF5F8F" d="M285.5,354c0,0,2.4,8.8-0.3,9.2c-2.7,0.3-7.3-18.7-7.3-18.7l5.9-3.7L285.5,354z"/>
				<g>
					<g>
						<defs>
							<path id="XMLID_3_" d="M277.1,381.1c-0.6-0.1-1.6-7.8-1.6-7.8l6.3,1.3C281.7,374.6,277.7,381.2,277.1,381.1z"/>
						</defs>
						<use xlink:href="#XMLID_3_"  overflow="visible" fill="#FFCEB8"/>
						<clipPath id="XMLID_5_">
							<use xlink:href="#XMLID_3_"  overflow="visible"/>
						</clipPath>
						
							<rect x="275" y="377.9" transform="matrix(0.9783 0.2074 -0.2074 0.9783 84.8211 -49.2437)" clip-path="url(#XMLID_5_)" fill="#54486E" width="4.5" height="4.2"/>
					</g>
					
						<rect x="281.4" y="316.9" transform="matrix(0.9783 0.2074 -0.2074 0.9783 77.8781 -51.4972)" fill="#54486E" width="6.4" height="57.7"/>
					
						<rect x="285.2" y="317.1" transform="matrix(0.9783 0.2074 -0.2074 0.9783 77.9553 -51.7356)" fill="#7360C7" width="1.1" height="57.7"/>
					
						<rect x="282.8" y="316.6" transform="matrix(0.9783 0.2074 -0.2074 0.9783 77.7947 -51.24)" fill="#7360C7" width="1.1" height="57.7"/>
					
						<rect x="286.7" y="319.2" transform="matrix(0.9783 0.2074 -0.2074 0.9783 72.7648 -53.1539)" fill="#7360C7" width="6.4" height="2.7"/>
					<path fill="#FF87C1" d="M291.9,315.8l-1.8-0.4c-1.2-0.3-2.4,0.5-2.7,1.8l-0.3,1.4l6.3,1.3l0.3-1.4
						C293.9,317.2,293.1,316,291.9,315.8z"/>
				</g>
				<path fill="#FEC6C1" d="M303,337.5c0,0-4.7,11.6-6.2,12.4c-1.5,0.7-9,2.2-9.2,2.4c-0.2,0.2-2.4,2.9-2.7,2.9
					c-0.3,0-5,1.7-1.1-5.6l3.9-3.6l2.6-12.1L303,337.5z"/>
				<path fill="#FEC6C1" d="M283.6,335.1c0,0-6.9,2.6-7.3,4c-0.3,1.4-1.6,8.7-1.3,9.7c0.2,0.8,3.5,11,3.5,11s3.2-0.4,2.4-5.3
					c-0.9-4.9-1.2-8.6-1.2-8.6l2-2.1L283.6,335.1z"/>
			</g>
			
				<line fill="none" stroke="#FF5F8F" stroke-width="1.2043" stroke-linecap="round" stroke-linejoin="round" stroke-miterlimit="10" x1="344.6" y1="309.7" x2="339.6" y2="321.2"/>
			<linearGradient id="SVGID_6_" gradientUnits="userSpaceOnUse" x1="441.8127" y1="432.7574" x2="477.8682" y2="313.1888">
				<stop  offset="0" style="stop-color:#E0FFFC"/>
				<stop  offset="0" style="stop-color:#7098E9"/>
				<stop  offset="2.887790e-02" style="stop-color:#3A93EA"/>
				<stop  offset="0.2633" style="stop-color:#536DF0"/>
				<stop  offset="0.5982" style="stop-color:#723EF8"/>
				<stop  offset="0.8546" style="stop-color:#8620FD"/>
				<stop  offset="1" style="stop-color:#8D15FF"/>
			</linearGradient>
			<path fill="url(#SVGID_6_)" d="M452.4,384.2c12.3-1,22.1-4.6,28.5-11.9L459.1,339c-1.7-2.6-4.1-4.8-7-6.2l0,0l-8,22.9v20.2
				L452.4,384.2z"/>
			<linearGradient id="SVGID_7_" gradientUnits="userSpaceOnUse" x1="339.1534" y1="394.479" x2="371.9454" y2="285.7332">
				<stop  offset="0" style="stop-color:#E0FFFC"/>
				<stop  offset="0" style="stop-color:#7098E9"/>
				<stop  offset="2.887790e-02" style="stop-color:#3A93EA"/>
				<stop  offset="0.2633" style="stop-color:#536DF0"/>
				<stop  offset="0.5982" style="stop-color:#723EF8"/>
				<stop  offset="0.8546" style="stop-color:#8620FD"/>
				<stop  offset="1" style="stop-color:#8D15FF"/>
			</linearGradient>
			<path fill="url(#SVGID_7_)" d="M366.8,338.7l17.9-33.6l-20.5-7.2c-8.2-2.9-19.7,16.2-22.1,25.8L366.8,338.7z"/>
			
				<ellipse transform="matrix(0.3236 -0.9462 0.9462 0.3236 -33.3866 608.2258)" fill="#FD8F84" cx="408.7" cy="327.5" rx="12.3" ry="18.3"/>
			<g>
				<path fill="#5C4F78" d="M422.4,318.9c0.5,0.1,1.6,0.3,4.8-0.9c2.4-0.9,6.8-3.9,10-9.3c1.9-3.2,4-12.1,1.5-11.5
					c-5,1.1-6.4-4.9-6.4-4.9l-11.3,18L422.4,318.9z"/>
				<path fill="#54486E" d="M423.6,318.9c0,0,8.2-1,11.1-11.4c1.8-6.8,0.1-15.2,0.6-18.6c0.5-3.9,0.7-5.1-0.4-6.4
					c-1.1-1.3-6.4-0.2-9.4,2.9c-7,7.2-7.8,20.3-7.8,20.3L423.6,318.9z"/>
				<path fill="#54486E" d="M400.4,304.5c0,0-0.6-7.3-3-9.9c-4.7-5.1-12.1-5.6-11.8-4.1c2.2,13,1,13.4,2.2,17.9
					c2.3,8.7,11.1,9.5,11.1,9.5L400.4,304.5z"/>
				<path fill="#584C73" d="M402.8,308c0,0-4.1-1.5-6.9-5.6c-2.4-3.4-3.8-9.1-3.1-13.2c1.5-8.9,6.7-13.8,8.7-14.2
					c2.7-0.6,12.5,7.8,13,10.7s-1.4,15.9-1.4,15.9L402.8,308z"/>
				<path fill="#5C4F78" d="M422.3,307.1c0.4-0.1,5.7-2.6,6.2-14c0.5-11.2-2.7-20.2-5.7-20.7c-5.4-0.9-15.4,8.5-17,11.6
					c-3.7,7.3-1,14.5-0.7,14.5S422.3,307.1,422.3,307.1z"/>
				<path fill="#FEC6C1" d="M411.8,332L411.8,332c-7.9,0-14.4-6.4-14.4-14.4v-6.4c0-7.9,6.4-14.4,14.4-14.4h0
					c7.9,0,14.4,6.4,14.4,14.4v6.4C426.2,325.6,419.7,332,411.8,332z"/>
				<g>
					<circle fill="#5C4F78" cx="406" cy="320.5" r="1.5"/>
					<circle fill="#5C4F78" cx="417.6" cy="320.5" r="1.5"/>
				</g>
				<path fill="#FEC6C1" d="M397.3,318.9h0.1v-9.2h-0.1c-2.5,0-4.6,2.1-4.6,4.6v0C392.7,316.9,394.7,318.9,397.3,318.9z"/>
				<path fill="#FEC6C1" d="M426.3,318.9h-0.1v-9.2h0.1c2.5,0,4.6,2.1,4.6,4.6v0C430.9,316.9,428.8,318.9,426.3,318.9z"/>
				<path fill="#5C4F78" d="M423.2,309.1l-0.4-2.7c0,0-2.5,2-3.9,1.8c-1.4-0.2-2.9-3.7-2.9-3.7s-2.9,3.2-4.2,3.3
					c-1.4,0.1-4.1-3.3-4.1-3.3l-2.7,3.8l-4.2-1.4l0,0l-0.1,2.4l-1.4-5.9l5.2-6.5l11.8-0.9l7.6,5.1l1,4.1L423.2,309.1z"/>
				<path fill="#54486E" d="M399.3,303.4c1.9,2.2,1.6,4,1.4,5.9c-0.8,4.7-2.9,6.9-3.3,6c-0.4-0.9,0-5.6,0-5.6
					S397.7,303.5,399.3,303.4z"/>
				<path fill="#54486E" d="M424.8,305.1c-1.6,2.2-1.6,3.1-1.6,4c0.8,4.8,2.6,6.9,2.9,6.3c0.4-0.6,0-5.7,0-5.7
					S426.9,305.9,424.8,305.1z"/>
				<path fill="#584C73" d="M398.1,304.9c-1.5-2.9,6.3-8.1,6.3-8.1c0.1,0.3,0.4,3.1,3.3,7.7c0,0-1.6,3.3-2.7,3.8s-4.2-1.4-4.2-1.4
					L398.1,304.9z"/>
			</g>
			
				<line fill="none" stroke="#FF5F8F" stroke-width="1.2043" stroke-linecap="round" stroke-linejoin="round" stroke-miterlimit="10" x1="402.9" y1="315.4" x2="407.5" y2="317.2"/>
			
				<line fill="none" stroke="#FF5F8F" stroke-width="1.2043" stroke-linecap="round" stroke-linejoin="round" stroke-miterlimit="10" x1="416.1" y1="317.6" x2="420.1" y2="314.6"/>
			<path fill="#FEC6C1" d="M408.7,406.3h-32.1c0,0-3.1-4.1,1.1-6c4.2-1.9,19.1-6,19.1-6l13-1.3L408.7,406.3z"/>
			<circle fill="#FFFFFF" cx="418.1" cy="319.5" r="0.4"/>
			<circle fill="#FFFFFF" cx="406.4" cy="319.5" r="0.4"/>
			
				<path opacity="0.5" fill="none" stroke="#FFFFFF" stroke-width="1.7452" stroke-linecap="round" stroke-linejoin="round" stroke-miterlimit="10" d="
				M369.8,352.3l2.9,2.6c0.8,0.7,2,0.7,2.7,0l8.1-7.6c1-0.9,2.6-0.6,3.2,0.6l4.7,10c0.6,1.2,2,1.5,3.1,0.8l11.9-8.9
				c1-0.8,2.5-0.4,3.1,0.8l7.3,16.4c0.5,1.2,1.9,1.6,3,0.9l7.8-5.3c1.1-0.7,2.6-0.3,3,1l4.6,12.2c0.3,0.9,1.2,1.4,2.2,1.3l6.7-0.9"
				/>
		</g>
		<g>
			<linearGradient id="SVGID_8_" gradientUnits="userSpaceOnUse" x1="267.2139" y1="206.509" x2="394.292" y2="424.0721">
				<stop  offset="0" style="stop-color:#CCE0F4;stop-opacity:0"/>
				<stop  offset="0.3766" style="stop-color:#CFE2F5;stop-opacity:0.3766"/>
				<stop  offset="0.6064" style="stop-color:#D7E7F6;stop-opacity:0.6064"/>
				<stop  offset="0.7967" style="stop-color:#E5EFF9;stop-opacity:0.7967"/>
				<stop  offset="0.9646" style="stop-color:#FAFCFE;stop-opacity:0.9646"/>
				<stop  offset="1" style="stop-color:#FFFFFF"/>
			</linearGradient>
			<polygon fill="url(#SVGID_8_)" points="376.7,406.3 329.3,225.2 241.6,225.2 349.2,434.5 356.1,433.1 			"/>
			<image overflow="visible" width="154" height="37" xlink:href="536E7BB6.png"  transform="matrix(1 0 0 1 332.538 405.2145)">
			</image>
			<polygon fill="#FFFFFF" points="470.4,434.5 349.2,434.5 382.2,406.3 437.3,406.3 			"/>
			<linearGradient id="SVGID_9_" gradientUnits="userSpaceOnUse" x1="412.1049" y1="187.17" x2="401.7061" y2="444.5399">
				<stop  offset="0" style="stop-color:#CCE0F4;stop-opacity:0"/>
				<stop  offset="0.3766" style="stop-color:#CFE2F5;stop-opacity:0.3766"/>
				<stop  offset="0.6064" style="stop-color:#D7E7F6;stop-opacity:0.6064"/>
				<stop  offset="0.7967" style="stop-color:#E5EFF9;stop-opacity:0.7967"/>
				<stop  offset="0.9646" style="stop-color:#FAFCFE;stop-opacity:0.9646"/>
				<stop  offset="1" style="stop-color:#FFFFFF"/>
			</linearGradient>
			<polygon opacity="0.66" fill="url(#SVGID_9_)" points="375.1,406.3 329.3,225.2 491.8,225.2 441.6,406.3 			"/>
			
				<linearGradient id="SVGID_10_" gradientUnits="userSpaceOnUse" x1="3898.208" y1="199.6368" x2="4028.5327" y2="422.7582" gradientTransform="matrix(-1 0 0 1 4457.0762 0)">
				<stop  offset="0" style="stop-color:#CCE0F4;stop-opacity:0"/>
				<stop  offset="0.4926" style="stop-color:#CEE1F4;stop-opacity:0.4926"/>
				<stop  offset="0.6851" style="stop-color:#D5E5F6;stop-opacity:0.6851"/>
				<stop  offset="0.8251" style="stop-color:#E1EDF9;stop-opacity:0.8251"/>
				<stop  offset="0.939" style="stop-color:#F2F7FC;stop-opacity:0.939"/>
				<stop  offset="1" style="stop-color:#FFFFFF"/>
			</linearGradient>
			<polygon fill="url(#SVGID_10_)" points="441.6,406.3 491.8,225.2 596,225.2 472,434.5 472,434.5 			"/>
			<linearGradient id="SVGID_11_" gradientUnits="userSpaceOnUse" x1="463.9763" y1="189.7504" x2="453.7007" y2="444.0717">
				<stop  offset="0" style="stop-color:#CCE0F4;stop-opacity:0"/>
				<stop  offset="0.3766" style="stop-color:#CFE2F5;stop-opacity:0.3766"/>
				<stop  offset="0.6064" style="stop-color:#D7E7F6;stop-opacity:0.6064"/>
				<stop  offset="0.7967" style="stop-color:#E5EFF9;stop-opacity:0.7967"/>
				<stop  offset="0.9646" style="stop-color:#FAFCFE;stop-opacity:0.9646"/>
				<stop  offset="1" style="stop-color:#FFFFFF"/>
			</linearGradient>
			<polygon fill="url(#SVGID_11_)" points="427.7,406.3 440.9,225.2 490,225.2 441.8,406.3 			"/>
			<linearGradient id="SVGID_12_" gradientUnits="userSpaceOnUse" x1="365.5873" y1="221.832" x2="355.4692" y2="472.2542">
				<stop  offset="0" style="stop-color:#CCE0F4;stop-opacity:0"/>
				<stop  offset="0.3766" style="stop-color:#CFE2F5;stop-opacity:0.3013"/>
				<stop  offset="0.6064" style="stop-color:#D7E7F6;stop-opacity:0.4851"/>
				<stop  offset="0.7967" style="stop-color:#E5EFF9;stop-opacity:0.6374"/>
				<stop  offset="0.9646" style="stop-color:#FAFCFE;stop-opacity:0.7717"/>
				<stop  offset="1" style="stop-color:#FFFFFF;stop-opacity:0.8"/>
			</linearGradient>
			<polygon fill="url(#SVGID_12_)" points="390.1,437.5 321.8,256.4 382.7,256.4 399.3,437.5 			"/>
		</g>
		<g>
			<g>
				<g>
					<defs>
						<path id="XMLID_4_" d="M520.9,416.8c0.4-0.4,6.3,1.2,6.3,1.2l-3.9,4.4C523.4,422.4,520.5,417.3,520.9,416.8z"/>
					</defs>
					<use xlink:href="#XMLID_4_"  overflow="visible" fill="#AE66FF"/>
					<clipPath id="XMLID_6_">
						<use xlink:href="#XMLID_4_"  overflow="visible"/>
					</clipPath>
					<polygon clip-path="url(#XMLID_6_)" fill="#AE66FF" points="519,417.9 521.7,414.8 524.2,416.8 521.5,419.9 					"/>
				</g>
				<polygon fill="#AE66FF" points="523.4,422.4 527.2,418.1 562,445.2 558.1,449.5 				"/>
				<polygon fill="#AE66FF" points="524.2,421.4 524.9,420.7 559.6,447.8 559,448.5 				"/>
				<polygon fill="#AE66FF" points="525.8,419.7 526.4,419 561.1,446.1 560.5,446.8 				"/>
				<polygon fill="#AE66FF" points="555.4,447.5 559.3,443.1 560.9,444.3 557,448.7 				"/>
				<path fill="#AE66FF" d="M560.7,448.9l1.1-1.3c0.8-0.9,0.8-2,0-2.6l-0.9-0.7l-3.9,4.4l0.9,0.7C558.7,450,559.9,449.8,560.7,448.9
					z"/>
			</g>
		</g>
		<g>
			<g>
				<g>
					<defs>
						<path id="XMLID_10_" d="M490,415.9c0.4-0.4,6.3,1.2,6.3,1.2l-3.9,4.4C492.4,421.5,489.6,416.3,490,415.9z"/>
					</defs>
					<use xlink:href="#XMLID_10_"  overflow="visible" fill="#AE66FF"/>
					<clipPath id="XMLID_7_">
						<use xlink:href="#XMLID_10_"  overflow="visible"/>
					</clipPath>
					<polygon clip-path="url(#XMLID_7_)" fill="#AE66FF" points="488.1,416.9 490.8,413.8 493.3,415.8 490.6,418.9 					"/>
				</g>
				<polygon fill="#AE66FF" points="492.4,421.5 496.3,417.1 531.1,444.2 527.2,448.6 				"/>
				<polygon fill="#AE66FF" points="493.3,420.5 494,419.7 528.7,446.8 528.1,447.6 				"/>
				<polygon fill="#AE66FF" points="494.8,418.7 495.5,418 530.2,445.1 529.6,445.9 				"/>
				<polygon fill="#AE66FF" points="524.5,446.5 528.4,442.1 530,443.4 526.1,447.7 				"/>
				<path fill="#AE66FF" d="M529.7,447.9l1.1-1.3c0.8-0.9,0.8-2,0-2.6l-0.9-0.7l-3.9,4.4l0.9,0.7C527.8,449,529,448.8,529.7,447.9z"
					/>
			</g>
		</g>
		<g>
			<g>
				<g>
					<defs>
						<path id="XMLID_11_" d="M434.3,453.2c0,0.6-5.7,2.9-5.7,2.9l0.4-5.8C429,450.3,434.4,452.6,434.3,453.2z"/>
					</defs>
					<use xlink:href="#XMLID_11_"  overflow="visible" fill="#AE66FF"/>
					<clipPath id="XMLID_8_">
						<use xlink:href="#XMLID_11_"  overflow="visible"/>
					</clipPath>
					<polygon clip-path="url(#XMLID_8_)" fill="#AE66FF" points="435.2,451.2 434.9,455.3 431.7,455.3 432,451.2 					"/>
				</g>
				<polygon fill="#AE66FF" points="429,450.3 428.6,456.1 384.5,456 384.9,450.2 				"/>
				<polygon fill="#AE66FF" points="428.9,451.6 428.8,452.6 384.8,452.5 384.8,451.5 				"/>
				<polygon fill="#AE66FF" points="428.7,453.9 428.7,454.9 384.6,454.7 384.7,453.8 				"/>
				<polygon fill="#AE66FF" points="388.3,450.2 387.9,456 385.9,456 386.2,450.2 				"/>
				<path fill="#AE66FF" d="M383.3,452.2l-0.1,1.7c-0.1,1.1,0.6,2.1,1.6,2.1l1.1,0l0.4-5.8l-1.1,0
					C384.2,450.2,383.3,451.1,383.3,452.2z"/>
			</g>
		</g>
		<g>
			<path fill="#904AE6" d="M260.4,449.9H158.3c-1.5,0-2.2-2-0.9-3l40.8-31.9c0.3-0.2,0.6-0.3,0.9-0.3h103.2c1.5,0,2.2,2,0.9,3
				l-39.9,31.2C262.5,449.5,261.4,449.9,260.4,449.9z"/>
			<path fill="#AE66FF" d="M258.4,447h-97.8c-1.5,0-2.1-1.9-0.9-2.7l39.1-29.3c0.3-0.2,0.6-0.3,0.9-0.3h98.9c1.5,0,2.1,1.9,0.9,2.7
				L261.2,446C260.4,446.6,259.4,447,258.4,447z"/>
			<path fill="#C28AFF" d="M255.5,447h-96.9c-1.5,0-2.9-1-3.3-2.5L141.7,393c-0.8-2.9,1.4-5.8,4.5-5.8h93.2c2.8,0,5.2,1.9,5.9,4.5
				l13.5,51C259.4,444.9,257.7,447,255.5,447z"/>
			
				<ellipse transform="matrix(0.6797 -0.7335 0.7335 0.6797 -228.7614 269.1205)" fill="#D6B6FA" cx="193.8" cy="396.5" rx="2.2" ry="2.6"/>
		</g>
		<g>
			<g>
				<polygon fill="#AE66FF" points="659.9,438.5 616.7,405.3 561.2,405.3 561.2,428 601.6,461.2 659.9,461.2 				"/>
				<polygon fill="#C28AFF" points="561.2,405.3 601.6,438.5 659.9,438.5 616.7,405.3 				"/>
			</g>
			<path fill="#C28AFF" d="M623.9,446.2h35.6l4.6,4.3c-4.2-0.6-52.7-0.4-64.3,0.1l1.9-4.3H623.9z"/>
			<path fill="#C28AFF" d="M599.9,450.6c-13.4-10-44-35-44-35l5.3,0.1l40.6,30.5L599.9,450.6z"/>
		</g>
	</g>
</g>
</svg>
